<?xml version="1.0" encoding="utf-8"?>
<!-- Generator: Adobe Illustrator 16.0.4, SVG Export Plug-In . SVG Version: 6.00 Build 0)  -->
<!DOCTYPE svg PUBLIC "-//W3C//DTD SVG 1.1//EN" "http://www.w3.org/Graphics/SVG/1.1/DTD/svg11.dtd">
<svg version="1.1" id="Layer_1" xmlns="http://www.w3.org/2000/svg" xmlns:xlink="http://www.w3.org/1999/xlink" x="0px" y="0px"
	 width="270px" height="350px" viewBox="0 0 270 350" style="enable-background:new 0 0 270 350;" xml:space="preserve">
<style type="text/css">
<![CDATA[
	.st0{fill:none;stroke:#505050;stroke-width:8;stroke-linecap:round;stroke-miterlimit:10;}
	.st1{clip-path:url(#SVGID_2_);fill:none;stroke:#505050;stroke-width:8;stroke-linecap:round;stroke-miterlimit:10;}
	.st2{clip-path:url(#SVGID_2_);fill:#1A1A1A;}
	.st3{clip-path:url(#SVGID_2_);}
	.st4{clip-path:url(#SVGID_2_);fill:none;stroke:#505050;stroke-width:8;stroke-miterlimit:10;}
	.st5{fill:none;stroke:#7C7C7C;stroke-width:8;stroke-miterlimit:10;}
]]>
</style>
<polyline class="st5" points="108,122.2 138.4,113 167.2,123.8 181.2,165.8 136,154.3 91.6,165.8 77.5,207.5 136,196.6 194.8,206.3
	210.8,254.1 138.4,238.9 61.2,256 "/>
<line class="st0" x1="137.4" y1="340" x2="137.4" y2="38.2"/>
<g>
	<defs>
		<rect id="SVGID_1_" x="-271.5" y="-267" width="800" height="800"/>
	</defs>
	<clipPath id="SVGID_2_">
		<use xlink:href="#SVGID_1_"  style="overflow:visible;"/>
	</clipPath>
	<path class="st2" d="M140.7,38.4c0-1.8-1.5-3.3-3.3-3.3s-3.3,1.5-3.3,3.3s1.5,3.3,3.3,3.3S140.7,40.2,140.7,38.4"/>
	<line class="st1" x1="128.8" y1="11.2" x2="227.2" y2="297.4"/>
	<line class="st1" x1="45.5" y1="297.6" x2="145.1" y2="12.7"/>
	<polyline class="st4" points="104.6,128 135.8,139.4 169,128 183.1,169.1 137.2,189.3 90.3,169.9 76.1,211.7 138.4,238.9
		197.2,210.1 213,256 137.2,297.4 59.5,260.2 46.8,297.4 	"/>
	<path class="st3" d="M38.6,140.7c-10,0-18.2-3.5-25.8-9.7l1.5-1.6c6.2,5.8,15.5,9.6,24.3,9.6c16.6,0,23.5-7.9,23.5-16.5
		c0-7.3-5.2-13.4-17.1-16.9c-1.6-0.4-11.7-3.6-13.4-4c-12.8-3.8-18.9-8.5-18.9-17.4c0-8.8,7-17.4,25.5-17.4c8.4,0,15.8,3,22.2,8.5
		l-1.4,1.5c-5.6-5.2-13.4-8.3-20.7-8.3c-15,0-23.7,6.3-23.7,15.8c0,8.5,7.4,12.3,18.6,15.7c1.6,0.4,11,3.3,12.7,3.8
		c13.3,4.3,18,10.7,18,18.8C64,130.9,58.3,140.7,38.6,140.7"/>
	<path class="st3" d="M236.6,140.7c-10,0-18.2-3.5-25.8-9.7l1.5-1.6c6.2,5.8,15.5,9.6,24.3,9.6c16.6,0,23.5-7.9,23.5-16.5
		c0-7.3-5.2-13.4-17.1-16.9c-1.6-0.4-11.7-3.6-13.3-4c-12.8-3.8-18.9-8.5-18.9-17.4c0-8.8,7-17.4,25.5-17.4c8.4,0,15.8,3,22.2,8.5
		l-1.4,1.5c-5.6-5.2-13.4-8.3-20.7-8.3c-15,0-23.7,6.3-23.7,15.8c0,8.5,7.4,12.3,18.6,15.7c1.6,0.4,11,3.3,12.7,3.8
		c13.3,4.3,18,10.7,18,18.8C261.9,130.9,256.2,140.7,236.6,140.7"/>
</g>
</svg>
